HIERARCHY
ROOT Hips
{
	OFFSET 0.000000 0.000000 0.000000 
	CHANNELS 6 Xposition Yposition Zposition Zrotation Yrotation Xrotation
	JOINT LeftUpLeg
	{
		OFFSET 1.363060 -1.794630 0.839290 
		CHANNELS 3 Zrotation Yrotation Xrotation
		JOINT LeftLeg
		{
			OFFSET 2.448110 -6.726130 0.000000 
			CHANNELS 3 Zrotation Yrotation Xrotation
			JOINT LeftFoot
			{
				OFFSET 2.562200 -7.039590 0.000000 
				CHANNELS 3 Zrotation Yrotation Xrotation
				JOINT LeftToeBase
				{
					OFFSET 0.157640 -0.433110 2.322550 
					CHANNELS 3 Zrotation Yrotation Xrotation
					End Site
					{
						OFFSET 0.000000 0.000000 0.000000 
					}
				}
			}
		}
	}
	JOINT RightUpLeg
	{
		OFFSET -1.305520 -1.794630 0.839290 
		CHANNELS 3 Zrotation Yrotation Xrotation
		JOINT RightLeg
		{
			OFFSET -2.542530 -6.985550 0.000000 
			CHANNELS 3 Zrotation Yrotation Xrotation
			JOINT RightFoot
			{
				OFFSET -2.568260 -7.056230 0.000000 
				CHANNELS 3 Zrotation Yrotation Xrotation
				JOINT RightToeBase
				{
					OFFSET -0.164730 -0.452590 2.363150 
					CHANNELS 3 Zrotation Yrotation Xrotation
					End Site
					{
						OFFSET 0.000000 0.000000 0.000000 
					}
				}
			}
		}
	}
	JOINT Spine
	{
		OFFSET 0.028270 2.035590 -0.193380 
		CHANNELS 3 Zrotation Yrotation Xrotation
		JOINT Spine1
		{
			OFFSET 0.056720 2.048850 -0.042750 
			CHANNELS 3 Zrotation Yrotation Xrotation
			JOINT Neck1
			{
				OFFSET -0.054170 1.746240 0.172020 
				CHANNELS 3 Zrotation Yrotation Xrotation
				JOINT Head
				{
					OFFSET 0.104070 1.761360 -0.123970 
					CHANNELS 3 Zrotation Yrotation Xrotation
					End Site
					{
						OFFSET 0.000000 0.000000 0.000000 
					}
				}
			}
			JOINT LeftArm
			{
				OFFSET 3.362410 1.200890 -0.311210 
				CHANNELS 3 Zrotation Yrotation Xrotation
				JOINT LeftForeArm
				{
					OFFSET 4.983000 -0.000000 -0.000000 
					CHANNELS 3 Zrotation Yrotation Xrotation
					JOINT LeftHand
					{
						OFFSET 3.483560 -0.000000 -0.000000 
						CHANNELS 3 Zrotation Yrotation Xrotation
						JOINT LeftHandIndex1
						{
							OFFSET 0.715260 -0.000000 -0.000000 
							CHANNELS 3 Zrotation Yrotation Xrotation
							End Site
							{
								OFFSET 0.000000 0.000000 0.000000 
							}
						}
					}
				}
			}
			JOINT RightArm
			{
				OFFSET -3.136600 1.374050 -0.404650 
				CHANNELS 3 Zrotation Yrotation Xrotation
				JOINT RightForeArm
				{
					OFFSET -5.241900 -0.000000 -0.000000 
					CHANNELS 3 Zrotation Yrotation Xrotation
					JOINT RightHand
					{
						OFFSET -3.444170 -0.000000 -0.000000 
						CHANNELS 3 Zrotation Yrotation Xrotation
						JOINT RightHandIndex1
						{
							OFFSET -0.622530 -0.000000 -0.000000 
							CHANNELS 3 Zrotation Yrotation Xrotation
							End Site
							{
								OFFSET 0.000000 0.000000 0.000000 
							}
						}
					}
				}
			}
		}
	}
}
MOTION
Frames: 7
Frame Time: 0.041667
2.111531 17.421567 5.193157 -177.127486 -25.648834 -173.563449 -33.742483 -16.575811 -4.810382 -10.959289 7.305292 15.010803 2.135446 -13.890487 -20.233613 0.049300 -1.433300 -3.941800 28.248254 9.051791 5.091009 10.903867 -5.730987 18.530055 1.713828 -27.722465 -31.823683 -3.525400 -11.500500 33.987100 1.180775 1.347133 -4.807574 1.560730 0.601570 -15.187175 3.320077 -3.313321 16.630233 -0.065800 -2.183200 13.226900 -90.104788 9.711930 15.313704 22.628575 -35.542852 -8.002084 0.157484 2.750334 4.559717 -7.125000 0.000000 0.000000 75.708710 -14.516500 43.677544 -28.138822 41.523942 -8.961727 0.209222 -2.877032 -10.017541 7.125000 0.000000 0.000000 
2.057275 17.418963 5.178617 -176.782787 -25.590336 -173.679270 -33.526133 -16.203534 -4.751727 -10.935307 7.247417 14.982855 2.131456 -13.727244 -20.057477 0.058400 -1.559200 -4.288800 28.514951 9.017051 4.821571 10.789004 -6.024112 19.104576 1.500269 -27.017349 -31.608032 -3.789200 -11.874500 35.289600 1.211475 1.305859 -4.751745 1.601757 0.581399 -14.957579 3.255988 -3.298310 16.668117 -0.177800 -2.125000 13.347000 -90.407856 9.710093 14.562250 22.609450 -35.569089 -8.039515 0.162022 2.773138 3.917370 -7.125000 0.000000 0.000000 75.825295 -14.411737 43.528680 -27.800909 41.212782 -8.749879 0.209414 -2.867072 -9.938682 7.125000 0.000000 0.000000 
2.004755 17.417444 5.161038 -176.676564 -25.458213 -173.652642 -33.608392 -16.168172 -4.551585 -10.978765 7.148687 14.803232 2.185910 -13.399692 -20.474147 0.101400 -2.053500 -5.653500 28.487712 9.079190 4.461809 10.640976 -6.291005 19.654871 1.247921 -26.156269 -31.587807 -4.146600 -12.352900 36.992200 1.229066 1.220780 -4.721994 1.698443 0.559700 -14.796181 3.231367 -3.226118 16.646272 -0.255900 -2.049400 13.363200 -90.595561 9.763764 14.058440 22.262664 -35.280888 -7.897715 0.161972 2.796923 3.737425 -7.125000 0.000000 0.000000 75.998797 -14.350326 43.486884 -27.499367 40.890085 -8.488724 0.196417 -2.820718 -9.996829 7.125000 0.000000 0.000000 
1.959180 17.416359 5.143893 -176.516878 -25.294501 -173.600769 -33.559803 -16.187730 -4.429244 -10.999320 7.056580 14.624886 2.215063 -13.369560 -20.644378 0.106200 -2.101000 -5.785000 28.594269 9.247347 3.981108 10.507900 -6.622084 20.271273 1.122231 -25.654681 -31.455659 -4.501200 -12.799100 38.620900 1.275838 1.105767 -4.718530 1.902093 0.533583 -14.722466 3.124474 -3.097722 16.555385 -0.382200 -1.962000 13.288000 -90.808478 9.916102 13.560429 21.834491 -34.915774 -7.702824 0.121586 2.833839 3.634694 -7.125000 0.000000 0.000000 76.010882 -14.418114 43.492845 -27.206435 40.703422 -8.473149 0.167294 -2.876934 -10.242189 7.125000 0.000000 0.000000 
1.911218 17.409740 5.127942 -176.287393 -25.068766 -173.533806 -33.436725 -16.174913 -4.350903 -10.991244 6.977448 14.478802 2.222676 -13.731359 -20.600980 0.063800 -1.629700 -4.483400 28.705836 9.440845 3.353160 10.308509 -7.046147 21.064088 0.595014 -24.163690 -31.971584 -5.149800 -13.550600 41.466100 1.377753 0.825278 -4.685325 2.296664 0.444277 -14.489104 3.115394 -2.781828 16.511687 -0.466300 -1.764500 13.282400 -91.166326 10.122808 12.552349 21.522785 -34.660041 -7.561764 0.031284 2.885296 3.552866 -7.125000 0.000000 0.000000 75.847735 -14.168740 43.885983 -26.986661 40.482459 -8.369506 0.147767 -2.875993 -10.207447 7.125000 0.000000 0.000000 
1.873890 17.443595 5.114812 -176.227095 -24.850164 -174.237830 -33.708529 -15.646112 -3.432064 -10.963517 6.802907 14.471926 2.239368 -14.258030 -20.651386 0.067300 -1.673500 -4.604200 28.821010 9.370254 3.559152 10.055188 -7.360130 21.984636 -0.024313 -22.578574 -32.713360 -5.741400 -14.173000 43.934900 1.389567 0.896844 -4.563813 2.463036 0.520197 -14.562518 3.245739 -2.812412 16.436898 -0.431200 -1.730100 13.281200 -91.287359 10.214061 12.273695 21.099232 -34.276144 -7.377634 0.017051 2.909572 3.602871 -7.125000 0.000000 0.000000 75.963504 -14.075764 43.519440 -26.814064 40.350411 -8.326565 0.139815 -2.896752 -10.321165 7.125000 0.000000 0.000000 
1.845026 17.445006 5.104611 -176.176699 -24.669294 -174.118261 -33.742542 -15.747412 -3.379360 -10.957773 6.790392 14.434542 2.266701 -14.673121 -20.808807 0.108800 -2.126700 -5.855900 28.712632 9.384761 2.677657 9.798332 -7.854474 22.953698 -0.240616 -21.903665 -33.006937 -6.140600 -14.563300 45.543500 1.411814 0.918088 -4.535484 2.664635 0.568811 -14.457846 3.219535 -2.851581 16.428930 -0.521800 -1.698700 13.344500 -91.256587 10.260748 12.035810 20.557844 -33.790929 -7.170211 0.055291 2.921803 3.803726 -7.125000 0.000000 0.000000 76.030506 -13.991789 43.386706 -26.865515 40.402501 -8.368826 0.145370 -2.908034 -10.904606 7.125000 0.000000 0.000000 
